<?xml version="1.0" ?><svg id="Layer_5" style="enable-background:new 0 0 64 64;" version="1.1" viewBox="0 0 64 64" xml:space="preserve" xmlns="http://www.w3.org/2000/svg" xmlns:xlink="http://www.w3.org/1999/xlink"><g><g><g><polygon points="42,36 42,44 26,44 26,40 26,36    " style="fill:#FFEAA7;"/></g><g><polygon points="44,30 44,24 44,18 62,18 62,30    " style="fill:#E6E9ED;"/></g><g><polygon points="41,2 41,14 32,14 23,14 23,2    " style="fill:#E6E9ED;"/></g><g><polygon points="20,24 20,30 11,30 2,30 2,18 20,18    " style="fill:#E6E9ED;"/></g><g><polygon points="24,50 24,62 6,62 6,50 15,50    " style="fill:#E6E9ED;"/></g><g><polygon points="53,35 57,43 53,43 49,43    " style="fill:#EF7385;"/></g><g><polygon points="36,56 36,60 28,56 36,52    " style="fill:#EF7385;"/></g></g><g><path d="M53,32.764L47.382,44H52v11H37v-4.618L25.764,56L37,61.618V57h17V44h4.618L53,32.764z M35,58.382L30.236,56L35,53.618    V58.382z M53,37.236L55.382,42h-4.764L53,37.236z"/><rect height="2" width="12" x="9" y="53"/><rect height="2" width="12" x="9" y="57"/><path d="M43,17v6H33v-8h9V1H22v14h9v8H21v-6H1v14h9v10h4v8H5v14h20V49h-9v-8h9v4h18V35H25v4H12v-8h9v-6h22v6h20V17H43z M24,3h16    v10H24V3z M23,61H7V51h16V61z M27,37h14v6H27V37z M19,29H3V19h16V29z M61,29H45V19h16V29z"/><rect height="2" width="12" x="47" y="21"/><rect height="2" width="12" x="47" y="25"/><rect height="2" width="12" x="5" y="21"/><rect height="2" width="12" x="5" y="25"/><rect height="2" width="12" x="26" y="5"/><rect height="2" width="12" x="26" y="9"/><rect height="2" width="2" x="29" y="39"/><rect height="2" width="2" x="37" y="39"/><rect height="2" width="2" x="33" y="39"/></g></g></svg>